<svg width="121" height="122" viewBox="0 0 121 122" fill="none" xmlns="http://www.w3.org/2000/svg">
<path d="M57.6923 121C85.6945 121 108.396 98.2982 108.396 70.196C108.396 42.0938 85.6945 19.392 57.6923 19.392C29.6901 19.392 6.98828 42.0938 6.98828 70.196C6.98828 98.2982 29.6901 121 57.6923 121Z" fill="#F1F3F9" stroke="#D6DCE8" stroke-width="2.00016" stroke-miterlimit="10"/>
<path d="M20.3895 37.2933H92.4952C95.3954 37.2933 97.5956 39.4935 97.5956 42.3937V88.0974C97.5956 90.9976 95.3954 93.1978 92.4952 93.1978H20.3895C17.4892 93.1978 15.2891 90.9976 15.2891 88.0974V42.3937C15.2891 39.4935 17.6893 37.2933 20.3895 37.2933Z" fill="#F1F3F9" stroke="#D6DCE8" stroke-width="2.00016" stroke-miterlimit="10"/>
<path d="M98.9958 66.5957V89.0975C98.9958 91.9977 96.6956 94.3979 93.6953 94.3979H19.5895C16.6893 94.3979 14.2891 91.9977 14.2891 89.0975V64.6956" stroke="#E2E4E9" stroke-width="3.00024" stroke-linecap="round" stroke-linejoin="round"/>
<path d="M92.6941 53.9946H69.2922C66.992 53.9946 64.7919 54.7947 63.0917 56.1948L56.9912 61.1952C55.2911 62.5953 53.0909 63.3954 50.7908 63.3954H24.3887C21.6885 63.3954 19.4883 65.5956 19.4883 68.2958C19.4883 68.4958 19.4883 68.7958 19.5883 68.9958L24.4887 94.7979C24.8887 97.1981 26.8889 98.9982 29.3891 98.9982H85.8935C88.2937 98.9982 90.3939 97.2981 90.7939 94.8979L97.5945 59.5951C98.0945 56.8949 96.2944 54.4947 93.5941 53.9946C93.1941 53.9946 92.8941 53.9946 92.6941 53.9946Z" fill="white"/>
<path d="M103.196 47.0941H72.7938C69.7936 47.0941 66.9934 48.0942 64.6932 49.9944L56.6925 56.4949C54.4924 58.295 51.5921 59.3951 48.5919 59.3951H14.1892C10.6889 59.3951 7.88867 62.2953 7.88867 65.6956C7.88867 65.9956 7.88867 66.2957 7.98868 66.5957L14.2892 100.298C14.7892 103.499 17.4894 105.799 20.5897 105.799H94.1955C97.3958 105.799 99.996 103.599 100.496 100.398L109.397 54.2947C109.997 50.7944 107.697 47.6942 104.196 46.9941C103.896 47.0941 103.496 47.0941 103.196 47.0941Z" fill="white" stroke="#D6DCE8" stroke-width="2.00016" stroke-miterlimit="10"/>
<path d="M44.3898 81.9964C46.1898 81.9964 47.6898 80.4964 47.6898 78.6964C47.6898 76.8964 46.1898 75.3964 44.3898 75.3964C42.5898 75.3964 41.0898 76.8964 41.0898 78.6964C41.0898 80.4964 42.5898 81.9964 44.3898 81.9964Z" fill="#AAB2C5"/>
<path d="M70.093 81.8963C71.893 81.8963 73.393 80.3963 73.393 78.5963C73.393 76.7963 71.893 75.2963 70.093 75.2963C68.293 75.2963 66.793 76.7963 66.793 78.5963C66.793 80.4963 68.293 81.8963 70.093 81.8963Z" fill="#AAB2C5"/>
<path d="M108.095 103.499C107.695 105.199 107.095 106.999 106.395 108.499C104.495 112.199 101.495 115.099 97.7945 117C93.9942 118.9 89.4939 119.7 84.9935 118.7C74.3927 116.5 67.5921 106.099 69.7923 95.4979C71.9925 84.897 82.2933 77.9965 92.8941 80.2967C96.6944 81.0967 99.9947 82.9969 102.795 85.5971C107.495 90.2975 109.495 97.098 108.095 103.499Z" fill="#D6DCE8" stroke="#AAB2C5" stroke-width="2.00016" stroke-miterlimit="10"/>
<path d="M95.1949 97.7982H90.6945V93.2978C90.6945 92.3977 89.9945 91.5977 88.9944 91.5977C88.0943 91.5977 87.2942 92.2977 87.2942 93.2978V97.7982H82.7939C81.8938 97.7982 81.0938 98.4982 81.0938 99.4983C81.0938 100.498 81.7938 101.198 82.7939 101.198H87.2942V105.699C87.2942 106.599 87.9943 107.399 88.9944 107.399C89.8944 107.399 90.6945 106.699 90.6945 105.699V101.198H95.1949C96.0949 101.198 96.895 100.498 96.895 99.4983C96.895 98.4982 96.0949 97.7982 95.1949 97.7982Z" fill="white" stroke="#AAB2C5" stroke-width="2.00016" stroke-miterlimit="10"/>
<path d="M53.1925 58.295C49.5922 51.2945 48.7921 42.8938 51.1923 35.2932C53.4925 27.6926 58.9929 21.1921 65.7934 17.4918C67.8936 16.3917 70.2938 15.4917 72.694 15.3916C75.0942 15.2916 77.6944 16.0917 79.2945 18.0919C80.8946 19.892 81.1947 22.8922 79.8946 24.8924C78.4945 26.7925 75.6942 27.5926 73.3941 26.9926C69.6938 26.2925 66.6935 23.3923 65.7934 19.892C64.8934 16.3917 66.0935 12.2914 68.8937 9.99122C70.6938 8.39109 73.194 7.49102 75.4942 6.79097C86.6951 3.49071 98.8961 3.09067 110.297 5.59087" stroke="#D6DCE8" stroke-width="2.00016" stroke-miterlimit="10" stroke-dasharray="4 4"/>
<path d="M60.3914 85.4972H54.1914V86.9972H60.3914V85.4972Z" fill="#AAB2C5"/>
<path d="M116.296 2.99046C116.196 4.49046 116.096 5.89046 114.996 6.19046C113.896 6.49046 113.396 5.49046 112.696 4.09046C111.996 2.79046 112.396 1.39046 113.596 1.09046C114.696 0.790457 116.496 1.19046 116.296 2.99046Z" fill="#F1F3F9" stroke="#D6DCE8" stroke-width="2.00016" stroke-miterlimit="10"/>
<path d="M115.096 10.191C115.396 8.39096 115.696 7.39096 114.696 6.89096C113.596 6.39096 112.896 7.29096 111.696 8.49096C110.696 9.59096 111.296 11.191 112.296 11.691C113.496 12.291 114.796 11.691 115.096 10.191Z" fill="#F1F3F9" stroke="#D6DCE8" stroke-width="2.00016" stroke-miterlimit="10"/>
<path d="M116.495 6.8908C116.395 7.5908 115.895 8.0908 115.195 8.1908C114.895 8.1908 114.595 8.1908 114.195 8.1908C112.795 7.9908 111.695 7.0908 111.795 6.1908C111.895 5.2908 113.195 4.7908 114.795 4.9908C115.095 4.9908 115.395 5.0908 115.595 5.1908C116.195 5.3908 116.595 6.0908 116.495 6.8908C116.495 6.8908 116.495 6.7908 116.495 6.8908Z" fill="#F1F3F9"/>
<path d="M116.495 6.8908C116.395 7.5908 115.895 8.0908 115.195 8.1908C114.895 8.1908 114.595 8.1908 114.195 8.1908C112.795 7.9908 111.695 7.0908 111.795 6.1908C111.895 5.2908 113.195 4.7908 114.795 4.9908C115.095 4.9908 115.395 5.0908 115.595 5.1908C116.195 5.3908 116.595 6.0908 116.495 6.8908ZM116.495 6.8908C116.495 6.7908 116.495 6.8908 116.495 6.8908Z" stroke="#D6DCE8" stroke-width="2.00016" stroke-miterlimit="10"/>
<path d="M4.88867 34.9928C4.88867 33.2928 4.88867 31.5928 6.08867 31.0928C7.38867 30.5928 8.08867 31.7928 9.08867 33.4928C9.98867 34.9928 9.58867 36.5928 8.28867 37.0928C7.18867 37.5928 4.88867 37.2928 4.88867 34.9928Z" fill="#F1F3F9" stroke="#D6DCE8" stroke-width="2.00016" stroke-miterlimit="10"/>
<path d="M5.58749 26.5923C5.38749 28.6923 5.08749 29.8923 6.38749 30.3923C7.68749 30.8923 8.38749 29.7923 9.68749 28.1923C10.6875 26.7923 9.98748 24.9923 8.68749 24.4923C7.38749 23.9923 5.78749 24.8923 5.58749 26.5923Z" fill="#F1F3F9" stroke="#D6DCE8" stroke-width="2.00016" stroke-miterlimit="10"/>
<path d="M4.48828 30.5927C4.48828 29.7927 5.08828 29.1927 5.78828 29.0927C6.08828 28.9927 6.48828 28.9927 6.88828 29.0927C8.48828 29.1927 9.88828 30.0927 9.78828 31.0927C9.68828 32.0927 8.38828 32.7927 6.68828 32.5927C6.38828 32.5927 6.08828 32.4927 5.78828 32.3927C4.98828 32.2927 4.48828 31.4927 4.48828 30.5927Z" fill="#F1F3F9" stroke="#D6DCE8" stroke-width="2.00016" stroke-miterlimit="10"/>
<path d="M11.2891 30.8928C21.7899 30.8928 41.1914 36.9933 41.4915 59.3951" stroke="#D6DCE8" stroke-width="2.00016" stroke-miterlimit="10" stroke-dasharray="4 4"/>
</svg>
