<svg width="20" height="20" viewBox="0 0 20 20" fill="none" xmlns="http://www.w3.org/2000/svg">
<path d="M16.1956 3.36207C16.3059 3.53534 16.117 3.73718 15.9168 3.69167V3.69167C15.5251 3.57501 15.0918 3.51667 14.6501 3.51667H11.9415C11.7843 3.51667 11.6362 3.44273 11.5418 3.31704L10.6084 2.07501V2.07501C10.4911 1.90871 10.602 1.66667 10.8056 1.66667H13.1001C14.401 1.66667 15.5468 2.34228 16.1956 3.36207Z" fill="url(#paint0_linear_9080_288)"/>
<path d="M16.7834 5.45001C16.4251 5.19167 16.0167 5.00001 15.5751 4.89167C15.2751 4.80834 14.9667 4.76667 14.6501 4.76667H11.5501C11.0667 4.76667 11.0334 4.72501 10.7751 4.38334L9.60841 2.83334C9.06675 2.10834 8.64175 1.66667 7.28341 1.66667H5.35008C3.31675 1.66667 1.66675 3.31667 1.66675 5.35001V14.65C1.66675 16.6833 3.31675 18.3333 5.35008 18.3333H14.6501C16.6834 18.3333 18.3334 16.6833 18.3334 14.65V8.45001C18.3334 7.20834 17.7251 6.11667 16.7834 5.45001ZM11.9917 13.6167H8.00008C7.67508 13.6167 7.42508 13.3583 7.42508 13.0333C7.42508 12.7167 7.67508 12.45 8.00008 12.45H11.9917C12.3167 12.45 12.5751 12.7167 12.5751 13.0333C12.5751 13.3583 12.3167 13.6167 11.9917 13.6167Z" fill="url(#paint1_linear_9080_288)"/>
<defs>
<linearGradient id="paint0_linear_9080_288" x1="13.3751" y1="1.66667" x2="13.3751" y2="3.87501" gradientUnits="userSpaceOnUse">
<stop stop-color="#B294FF"/>
<stop offset="1" stop-color="#7328FF"/>
</linearGradient>
<linearGradient id="paint1_linear_9080_288" x1="10.0001" y1="1.66667" x2="10.0001" y2="18.3333" gradientUnits="userSpaceOnUse">
<stop stop-color="#B294FF"/>
<stop offset="1" stop-color="#7328FF"/>
</linearGradient>
</defs>
</svg>
