<svg width="19" height="18" viewBox="0 0 19 18" fill="none" xmlns="http://www.w3.org/2000/svg">
<path d="M16.2106 13.818C15.9497 14.4206 15.6409 14.9754 15.2832 15.4854C14.7955 16.1807 14.3962 16.662 14.0885 16.9293C13.6115 17.368 13.1004 17.5926 12.5531 17.6054C12.1602 17.6054 11.6863 17.4936 11.1348 17.2668C10.5814 17.0411 10.0729 16.9293 9.60788 16.9293C9.12021 16.9293 8.59719 17.0411 8.03776 17.2668C7.47747 17.4936 7.02611 17.6118 6.68101 17.6235C6.15618 17.6459 5.63305 17.4148 5.11088 16.9293C4.77761 16.6386 4.36074 16.1403 3.86136 15.4343C3.32556 14.6805 2.88506 13.8063 2.53997 12.8096C2.17038 11.7331 1.98511 10.6907 1.98511 9.68151C1.98511 8.52548 2.23491 7.52842 2.73525 6.69289C3.12847 6.02175 3.6516 5.49234 4.30633 5.1037C4.96107 4.71505 5.66851 4.517 6.43036 4.50433C6.84722 4.50433 7.39388 4.63328 8.07321 4.8867C8.75063 5.14097 9.18559 5.26991 9.37629 5.26991C9.51887 5.26991 10.0021 5.11914 10.8212 4.81855C11.5958 4.53979 12.2496 4.42437 12.7852 4.46983C14.2365 4.58696 15.3268 5.15907 16.0519 6.18978C14.754 6.97622 14.1119 8.07774 14.1247 9.49081C14.1364 10.5915 14.5357 11.5074 15.3204 12.2346C15.6761 12.5722 16.0732 12.8331 16.5151 13.0183C16.4193 13.2962 16.3181 13.5624 16.2106 13.818ZM12.8821 0.720098C12.8821 1.58279 12.5669 2.38829 11.9387 3.13385C11.1806 4.02018 10.2636 4.53234 9.26918 4.45152C9.25651 4.34802 9.24916 4.2391 9.24916 4.12463C9.24916 3.29644 9.60969 2.41012 10.2499 1.68543C10.5696 1.31851 10.9761 1.01341 11.4691 0.770036C11.9611 0.530289 12.4264 0.397705 12.864 0.375C12.8768 0.490329 12.8821 0.605665 12.8821 0.720087V0.720098Z" fill="#0A0D14"/>
</svg>
